<?xml version="1.0" standalone="no"?>
<!DOCTYPE svg PUBLIC "-//W3C//DTD SVG 20010904//EN"
 "http://www.w3.org/TR/2001/REC-SVG-20010904/DTD/svg10.dtd">
<svg version="1.0" xmlns="http://www.w3.org/2000/svg"
 width="512.000000pt" height="512.000000pt" viewBox="0 0 512.000000 512.000000"
 preserveAspectRatio="xMidYMid meet">

<g transform="translate(0.000000,512.000000) scale(0.100000,-0.100000)"
fill="#000000" stroke="none">
<path d="M1243 4789 c-440 -42 -778 -319 -878 -721 -44 -177 -47 -272 -42
-1598 4 -1350 2 -1306 59 -1480 99 -306 357 -546 670 -625 176 -44 272 -47
1593 -43 1374 4 1320 2 1515 70 290 102 519 356 595 660 44 177 47 271 42
1598 -3 1121 -5 1253 -21 1330 -64 324 -239 563 -511 700 -121 61 -250 95
-412 109 -145 13 -2475 12 -2610 0z m77 -2044 l5 -640 218 -3 217 -2 0 -105 0
-105 -330 0 -330 0 0 743 c0 409 3 747 7 751 4 4 52 5 107 4 l101 -3 5 -640z
m756 597 c62 -33 71 -163 15 -214 -55 -50 -151 -47 -201 7 -47 50 -33 177 24
207 50 27 112 27 162 0z m1758 -513 c160 -63 265 -242 266 -451 l0 -68 -340 0
c-187 0 -340 -2 -340 -4 0 -2 9 -32 20 -67 37 -120 111 -178 226 -179 100 0
167 33 223 110 l27 38 82 -47 c44 -25 84 -49 87 -53 22 -22 -101 -151 -181
-191 -135 -68 -330 -70 -461 -7 -73 36 -146 112 -186 194 -141 287 2 663 281
738 91 25 216 19 296 -13z m-1734 -469 l0 -470 -105 0 -105 0 0 470 0 470 105
0 105 0 0 -470z m467 208 c63 -142 119 -258 123 -258 3 0 49 93 100 208 51
114 104 231 118 260 l24 52 119 0 c66 0 119 -2 119 -5 0 -5 -408 -853 -457
-948 l-24 -48 -45 93 c-208 425 -434 896 -434 902 0 4 54 5 120 4 l121 -3 116
-257z"/>
<path d="M3620 2670 c-50 -9 -93 -34 -125 -72 -31 -36 -56 -88 -49 -100 3 -5
102 -8 221 -8 l215 0 -6 28 c-25 103 -141 172 -256 152z"/>
</g>
</svg>
